<?xml version="1.0" standalone="no"?><!DOCTYPE svg PUBLIC "-//W3C//DTD SVG 1.1//EN" "http://www.w3.org/Graphics/SVG/1.1/DTD/svg11.dtd"><svg t="1511141967389" class="icon" style="" viewBox="0 0 1024 1024" version="1.1" xmlns="http://www.w3.org/2000/svg" p-id="1056" xmlns:xlink="http://www.w3.org/1999/xlink" width="200" height="200"><defs><style type="text/css"></style></defs><path d="M687.70304 512.85504c-29.60896-5.74464-15.22176-21.6832-15.22176-21.6832s28.97408-47.75424-5.7344-82.47296c-43.01312-42.99776-147.52768 5.47328-147.52768 5.47328-39.91552 12.38528-29.3376-5.65248-23.69536-36.35712 0-36.17792-12.38528-97.39776-118.72768-61.2352-106.23488 36.35712-197.44768 163.74272-197.44768 163.74272-63.43168 84.64384-55.03488 150.0672-55.03488 150.0672 15.8464 144.42496 169.30304 184.06912 288.65536 193.45408 125.57312 9.85088 295.05024-43.28448 346.4448-152.448 51.38432-109.34272-41.99936-152.61696-71.71072-158.5408z m-265.43616 270.2592c-124.65664 5.82656-225.4336-56.68352-225.4336-139.87328 0-83.28192 100.77696-150.0672 225.4336-155.81184 124.74368-5.74464 225.7152 45.64992 225.7152 128.76288 0 83.1744-100.97152 161.25952-225.7152 166.92224z" fill="#E67E22" p-id="1057"></path><path d="M397.39904 542.27968c-125.37856 14.67392-110.88896 132.11648-110.88896 132.11648s-1.28512 37.18656 33.61792 56.12544c73.35936 39.73632 148.89472 15.67744 187.07456-33.60256 38.1696-49.30048 15.75936-169.21088-109.80352-154.63936z m-31.62624 164.83328c-23.41376 2.74432-42.27072-10.74688-42.27072-30.336 0-19.49696 16.75776-39.91552 40.17664-42.36288 26.89024-2.56 44.3904 12.93312 44.3904 32.52224 0 19.49696-18.97472 37.5296-42.29632 40.17664z m73.9072-62.96576c-7.92576 5.92896-17.6896 5.10464-21.87264-2.00192-4.36736-6.92736-2.72896-18.04288 5.28896-23.87968 9.29792-6.91712 18.95424-4.92544 23.13728 2.01216 4.1984 7.10656 1.19296 17.76128-6.5536 23.86944zM748.75392 462.0032c10.10176 0 18.69312-7.4752 20.13696-17.22368 0.1792-0.72704 0.27136-1.36704 0.27136-2.18624 15.3088-137.6768-112.81408-113.98656-112.81408-113.98656-11.37152 0-20.49536 9.20576-20.49536 20.67968a20.48 20.48 0 0 0 20.49536 20.50048c92.02688-20.31616 71.72096 71.71584 71.72096 71.71584 0.00512 11.38688 9.27744 20.50048 20.6848 20.50048z" fill="#E67E22" p-id="1058"></path><path d="M733.81888 221.69088c-44.29312-10.37312-89.856-1.4336-102.62016 1.01376-0.98816 0.09216-1.90976 1.024-2.82112 1.20832-0.44544 0.09216-0.7168 0.54784-0.7168 0.54784a30.09024 30.09024 0 0 0-21.7856 28.97408c0 16.40448 13.29664 29.89568 29.88544 29.89568 0 0 16.13312-2.16064 27.06432-6.44096 10.83904-4.36736 102.59456-3.2512 148.16768 73.28256 24.86784 55.85408 10.9312 93.2352 9.19552 99.24096 0 0-5.9136 14.5152-5.9136 28.8 0 16.49664 13.30688 26.85952 29.78304 26.85952 13.77792 0 25.344-1.87904 28.7232-25.17504h0.1792c48.9216-163.08224-59.87328-239.70816-139.14112-258.20672z" fill="#E67E22" p-id="1059"></path></svg>