<?xml version="1.0" standalone="no"?><!DOCTYPE svg PUBLIC "-//W3C//DTD SVG 1.1//EN" "http://www.w3.org/Graphics/SVG/1.1/DTD/svg11.dtd"><svg t="1511141959686" class="icon" style="" viewBox="0 0 1024 1024" version="1.1" xmlns="http://www.w3.org/2000/svg" p-id="938" xmlns:xlink="http://www.w3.org/1999/xlink" width="200" height="200"><defs><style type="text/css"></style></defs><path d="M415.67744 243.878912c-125.627392 0-227.449856 88.210432-227.449856 197.0176 0 56.583168 27.546624 107.60704 71.673856 143.535104l-18.65728 35.4304c-3.099648 5.909504-2.251776 12.755968 2.22208 17.729536 4.445184 4.944896 11.170816 6.5536 17.370112 4.096l57.46176-22.703104c29.505536 12.140544 62.521344 18.92864 97.378304 18.92864l0.029696 0c-2.22208-11.264-3.362816-22.849536-3.362816-34.669568 0-56.203264 26.054656-106.847232 68.135936-143.330304 40.793088-35.342336 96.7936-57.227264 158.32064-57.372672C618.213376 312.077312 526.1568 243.878912 415.67744 243.878912L415.67744 243.878912zM499.60448 330.539008c-15.176704 0-27.45856 12.316672-27.45856 27.501568s12.281856 27.501568 27.45856 27.501568 27.488256-12.317696 27.488256-27.501568S514.781184 330.539008 499.60448 330.539008L499.60448 330.539008zM333.592576 330.539008c-15.176704 0-27.45856 12.316672-27.45856 27.501568s12.281856 27.501568 27.45856 27.501568 27.488256-12.317696 27.488256-27.501568S348.770304 330.539008 333.592576 330.539008L333.592576 330.539008z" fill="#E67E22" p-id="939"></path><path d="M639.414272 432.529408c108.84096 0 197.066752 76.448768 197.066752 170.715136 0 49.035264-23.862272 93.243392-62.083072 124.371968l16.142336 30.691328c2.691072 5.12 1.959936 11.0592-1.89952 15.36s-9.679872 5.676032-15.059968 3.539968l-49.77152-19.6608c-25.586688 10.504192-54.185984 16.413696-84.393984 16.413696-108.841984 0-197.096448-76.420096-197.096448-170.71616C442.317824 508.978176 530.572288 432.529408 639.414272 432.529408L639.414272 432.529408zM566.68672 507.631616c13.159424 0 23.803904 10.6496 23.803904 23.815168 0 13.165568-10.645504 23.816192-23.803904 23.816192s-23.80288-10.6496-23.80288-23.816192C542.88384 518.28224 553.52832 507.631616 566.68672 507.631616L566.68672 507.631616zM710.532096 507.631616c13.129728 0 23.803904 10.6496 23.803904 23.815168 0 13.165568-10.674176 23.816192-23.803904 23.816192-13.159424 0-23.80288-10.6496-23.80288-23.816192C686.729216 518.28224 697.372672 507.631616 710.532096 507.631616L710.532096 507.631616z" fill="#E67E22" p-id="940"></path></svg>